<?xml version="1.0" encoding="UTF-8" standalone="no"?>
<!DOCTYPE svg PUBLIC "-//W3C//DTD SVG 1.1//EN" "http://www.w3.org/Graphics/SVG/1.1/DTD/svg11.dtd">
<svg width="100%" height="100%" viewBox="0 0 1000 1000" version="1.1" xmlns="http://www.w3.org/2000/svg" xmlns:xlink="http://www.w3.org/1999/xlink" xml:space="preserve" xmlns:serif="http://www.serif.com/" style="fill-rule:evenodd;clip-rule:evenodd;stroke-linejoin:round;stroke-miterlimit:2;">
    <g id="Profile" transform="matrix(1.35135,0,0,1,1729.73,580)">
        <rect x="-1280" y="-580" width="740" height="1000" style="fill:none;"/>
        <clipPath id="_clip1">
            <rect x="-1280" y="-580" width="740" height="1000"/>
        </clipPath>
        <g clip-path="url(#_clip1)">
            <g transform="matrix(0.860465,0,0,1.16279,-1073.49,-1231.16)">
                <rect x="-240" y="560" width="860" height="860" style="fill:rgb(247,166,20);"/>
            </g>
            <g transform="matrix(2.78994,0,0,3.86887,-1253.4,-363.56)">
                <g id="SER">
                    <g transform="matrix(88.1471,0,0,88.1471,20.5662,87.7955)">
                        <path d="M0.035,-0.237L0.245,-0.25C0.25,-0.216 0.259,-0.19 0.273,-0.172C0.296,-0.143 0.328,-0.128 0.371,-0.128C0.402,-0.128 0.427,-0.136 0.444,-0.151C0.461,-0.165 0.469,-0.183 0.469,-0.202C0.469,-0.221 0.461,-0.237 0.445,-0.252C0.429,-0.267 0.391,-0.28 0.332,-0.293C0.235,-0.315 0.165,-0.344 0.124,-0.38C0.082,-0.417 0.062,-0.463 0.062,-0.519C0.062,-0.555 0.072,-0.59 0.094,-0.623C0.115,-0.656 0.147,-0.681 0.19,-0.7C0.233,-0.719 0.291,-0.728 0.366,-0.728C0.457,-0.728 0.527,-0.711 0.575,-0.677C0.623,-0.643 0.652,-0.589 0.661,-0.515L0.452,-0.502C0.447,-0.535 0.435,-0.558 0.417,-0.573C0.399,-0.587 0.375,-0.595 0.344,-0.595C0.318,-0.595 0.299,-0.589 0.286,-0.578C0.273,-0.567 0.266,-0.554 0.266,-0.539C0.266,-0.527 0.271,-0.517 0.282,-0.508C0.293,-0.498 0.317,-0.49 0.356,-0.481C0.453,-0.461 0.522,-0.44 0.564,-0.418C0.606,-0.397 0.636,-0.37 0.656,-0.339C0.675,-0.307 0.684,-0.272 0.684,-0.233C0.684,-0.187 0.671,-0.145 0.646,-0.106C0.621,-0.067 0.585,-0.038 0.54,-0.018C0.494,0.002 0.437,0.012 0.367,0.012C0.245,0.012 0.161,-0.011 0.114,-0.058C0.067,-0.105 0.041,-0.165 0.035,-0.237Z" style="fill:white;fill-rule:nonzero;"/>
                    </g>
                    <g transform="matrix(88.1471,0,0,88.1471,79.8158,87.7955)">
                        <path d="M0.073,-0.716L0.666,-0.716L0.666,-0.563L0.294,-0.563L0.294,-0.449L0.639,-0.449L0.639,-0.303L0.294,-0.303L0.294,-0.162L0.676,-0.162L0.676,-0L0.073,-0L0.073,-0.716Z" style="fill:white;fill-rule:nonzero;"/>
                    </g>
                    <path d="M180.079,77.19L175.392,68.513C174.072,66.017 172.895,64.396 171.862,63.65C170.456,62.674 168.864,62.186 167.085,62.186L165.363,62.186L165.363,87.796L145.78,87.796L145.78,24.698L178.275,24.698C184.301,24.698 188.906,25.215 192.091,26.248C195.276,27.28 197.844,29.196 199.796,31.993C201.747,34.791 202.722,38.198 202.722,42.216C202.722,45.716 201.976,48.736 200.484,51.276C198.992,53.815 196.941,55.874 194.33,57.452C192.665,58.456 190.384,59.288 187.486,59.948C189.81,60.723 191.503,61.498 192.565,62.272C193.179,62.715 194.029,63.588 195.117,64.892C190.94,63.432 186.443,64.515 183.624,67.193C181.17,69.525 179.988,73.066 180.079,77.19ZM165.363,50.264L173.584,50.264C174.473,50.264 176.195,49.977 178.749,49.403C180.04,49.145 181.095,48.485 181.912,47.423C182.73,46.362 183.139,45.142 183.139,43.765C183.139,41.728 182.493,40.164 181.202,39.074C179.911,37.983 177.486,37.438 173.928,37.438L165.363,37.438L165.363,50.264Z" style="fill:white;fill-rule:nonzero;"/>
                </g>
                <g transform="matrix(1.05776,0,0,1.05776,-31.2738,-174.614)">
                    <g transform="matrix(29.1667,0,0,29.1667,51.6986,275.217)">
                        <path d="M0.316,-0.532L0.457,-0.532L0.538,-0.149L0.621,-0.532L0.766,-0.532L0.612,-0L0.469,-0L0.385,-0.388L0.301,-0L0.156,-0L0.007,-0.532L0.156,-0.532L0.239,-0.15L0.316,-0.532Z" style="fill:white;fill-rule:nonzero;"/>
                    </g>
                    <g transform="matrix(29.1667,0,0,29.1667,74.3854,275.217)">
                        <path d="M0.208,-0.596L0.067,-0.596L0.067,-0.724L0.208,-0.724L0.208,-0.596ZM0.067,-0.532L0.208,-0.532L0.208,-0L0.067,-0L0.067,-0.532Z" style="fill:white;fill-rule:nonzero;"/>
                    </g>
                    <g transform="matrix(29.1667,0,0,29.1667,82.4888,275.217)">
                        <path d="M0.275,-0.432C0.243,-0.432 0.218,-0.422 0.2,-0.401C0.182,-0.381 0.171,-0.354 0.167,-0.319L0.383,-0.319C0.381,-0.356 0.369,-0.384 0.349,-0.403C0.329,-0.422 0.305,-0.432 0.275,-0.432ZM0.275,-0.546C0.319,-0.546 0.359,-0.538 0.395,-0.521C0.43,-0.505 0.459,-0.479 0.482,-0.443C0.503,-0.411 0.517,-0.375 0.523,-0.333C0.527,-0.309 0.528,-0.273 0.527,-0.228L0.163,-0.228C0.165,-0.174 0.182,-0.137 0.213,-0.115C0.233,-0.102 0.256,-0.095 0.283,-0.095C0.311,-0.095 0.335,-0.103 0.353,-0.12C0.362,-0.128 0.371,-0.141 0.378,-0.156L0.521,-0.156C0.517,-0.125 0.5,-0.093 0.471,-0.06C0.426,-0.008 0.362,0.018 0.28,0.018C0.212,0.018 0.152,-0.004 0.101,-0.048C0.049,-0.091 0.023,-0.162 0.023,-0.261C0.023,-0.353 0.046,-0.424 0.093,-0.473C0.14,-0.522 0.2,-0.546 0.275,-0.546Z" style="fill:white;fill-rule:nonzero;"/>
                    </g>
                    <g transform="matrix(29.1667,0,0,29.1667,98.7099,275.217)">
                        <rect x="0.068" y="-0.72" width="0.139" height="0.72" style="fill:white;fill-rule:nonzero;"/>
                    </g>
                    <g transform="matrix(29.1667,0,0,29.1667,106.813,275.217)">
                        <path d="M0.063,-0.717L0.2,-0.717L0.2,-0.33L0.374,-0.53L0.546,-0.53L0.36,-0.326L0.553,-0L0.385,-0L0.258,-0.228L0.2,-0.167L0.2,-0L0.063,-0L0.063,-0.717Z" style="fill:white;fill-rule:nonzero;"/>
                    </g>
                    <g transform="matrix(29.1667,0,0,29.1667,123.034,275.217)">
                        <path d="M0.304,-0.098C0.344,-0.098 0.376,-0.113 0.397,-0.142C0.419,-0.171 0.43,-0.212 0.43,-0.265C0.43,-0.319 0.419,-0.36 0.397,-0.388C0.376,-0.417 0.344,-0.432 0.304,-0.432C0.263,-0.432 0.232,-0.417 0.21,-0.388C0.188,-0.36 0.177,-0.319 0.177,-0.265C0.177,-0.212 0.188,-0.171 0.21,-0.142C0.232,-0.113 0.263,-0.098 0.304,-0.098ZM0.576,-0.265C0.576,-0.187 0.554,-0.12 0.509,-0.065C0.464,-0.009 0.396,0.019 0.304,0.019C0.213,0.019 0.145,-0.009 0.1,-0.065C0.055,-0.12 0.032,-0.187 0.032,-0.265C0.032,-0.342 0.055,-0.409 0.1,-0.465C0.145,-0.521 0.213,-0.549 0.304,-0.549C0.396,-0.549 0.464,-0.521 0.509,-0.465C0.554,-0.409 0.576,-0.342 0.576,-0.265Z" style="fill:white;fill-rule:nonzero;"/>
                    </g>
                    <g transform="matrix(29.1667,0,0,29.1667,140.851,275.217)">
                        <path d="M0.432,-0.266C0.432,-0.307 0.422,-0.343 0.404,-0.375C0.385,-0.407 0.354,-0.422 0.313,-0.422C0.262,-0.422 0.227,-0.398 0.208,-0.351C0.199,-0.325 0.194,-0.293 0.194,-0.254C0.194,-0.192 0.21,-0.149 0.243,-0.124C0.263,-0.109 0.286,-0.102 0.313,-0.102C0.351,-0.102 0.381,-0.117 0.401,-0.146C0.421,-0.176 0.432,-0.216 0.432,-0.266ZM0.353,-0.544C0.415,-0.544 0.467,-0.521 0.51,-0.475C0.554,-0.429 0.575,-0.362 0.575,-0.273C0.575,-0.179 0.554,-0.108 0.512,-0.059C0.47,-0.009 0.416,0.015 0.349,0.015C0.307,0.015 0.272,0.005 0.244,-0.017C0.228,-0.028 0.213,-0.045 0.199,-0.068L0.199,0.209L0.061,0.209L0.061,-0.532L0.194,-0.532L0.194,-0.454C0.209,-0.477 0.225,-0.495 0.242,-0.508C0.273,-0.532 0.31,-0.544 0.353,-0.544Z" style="fill:white;fill-rule:nonzero;"/>
                    </g>
                    <g transform="matrix(29.1667,0,0,29.1667,158.667,275.217)">
                        <path d="M0.304,-0.098C0.344,-0.098 0.376,-0.113 0.397,-0.142C0.419,-0.171 0.43,-0.212 0.43,-0.265C0.43,-0.319 0.419,-0.36 0.397,-0.388C0.376,-0.417 0.344,-0.432 0.304,-0.432C0.263,-0.432 0.232,-0.417 0.21,-0.388C0.188,-0.36 0.177,-0.319 0.177,-0.265C0.177,-0.212 0.188,-0.171 0.21,-0.142C0.232,-0.113 0.263,-0.098 0.304,-0.098ZM0.576,-0.265C0.576,-0.187 0.554,-0.12 0.509,-0.065C0.464,-0.009 0.396,0.019 0.304,0.019C0.213,0.019 0.145,-0.009 0.1,-0.065C0.055,-0.12 0.032,-0.187 0.032,-0.265C0.032,-0.342 0.055,-0.409 0.1,-0.465C0.145,-0.521 0.213,-0.549 0.304,-0.549C0.396,-0.549 0.464,-0.521 0.509,-0.465C0.554,-0.409 0.576,-0.342 0.576,-0.265Z" style="fill:white;fill-rule:nonzero;"/>
                    </g>
                    <g transform="matrix(29.1667,0,0,29.1667,176.483,275.217)">
                        <rect x="0.068" y="-0.72" width="0.139" height="0.72" style="fill:white;fill-rule:nonzero;"/>
                    </g>
                    <g transform="matrix(29.1667,0,0,29.1667,184.586,275.217)">
                        <path d="M0.173,-0.17C0.176,-0.145 0.183,-0.128 0.192,-0.117C0.21,-0.099 0.242,-0.089 0.288,-0.089C0.315,-0.089 0.337,-0.093 0.353,-0.102C0.369,-0.11 0.377,-0.122 0.377,-0.138C0.377,-0.154 0.371,-0.166 0.358,-0.174C0.345,-0.182 0.297,-0.196 0.213,-0.216C0.153,-0.231 0.11,-0.25 0.085,-0.272C0.061,-0.294 0.048,-0.326 0.048,-0.368C0.048,-0.417 0.068,-0.459 0.106,-0.494C0.145,-0.53 0.199,-0.547 0.269,-0.547C0.335,-0.547 0.39,-0.534 0.431,-0.508C0.473,-0.481 0.497,-0.435 0.503,-0.37L0.364,-0.37C0.362,-0.388 0.357,-0.402 0.349,-0.413C0.334,-0.431 0.308,-0.441 0.271,-0.441C0.241,-0.441 0.219,-0.436 0.206,-0.427C0.193,-0.417 0.187,-0.406 0.187,-0.394C0.187,-0.378 0.194,-0.366 0.208,-0.359C0.221,-0.351 0.27,-0.339 0.353,-0.32C0.408,-0.307 0.449,-0.288 0.477,-0.261C0.504,-0.235 0.518,-0.201 0.518,-0.161C0.518,-0.108 0.498,-0.065 0.459,-0.032C0.42,0.001 0.359,0.018 0.277,0.018C0.194,0.018 0.132,0 0.092,-0.035C0.052,-0.07 0.032,-0.115 0.032,-0.17L0.173,-0.17Z" style="fill:white;fill-rule:nonzero;"/>
                    </g>
                    <g transform="matrix(29.1667,0,0,29.1667,200.808,275.217)">
                        <path d="M0.063,-0.717L0.2,-0.717L0.2,-0.33L0.374,-0.53L0.546,-0.53L0.36,-0.326L0.553,-0L0.385,-0L0.258,-0.228L0.2,-0.167L0.2,-0L0.063,-0L0.063,-0.717Z" style="fill:white;fill-rule:nonzero;"/>
                    </g>
                    <g transform="matrix(29.1667,0,0,29.1667,217.029,275.217)">
                        <path d="M0.208,-0.596L0.067,-0.596L0.067,-0.724L0.208,-0.724L0.208,-0.596ZM0.067,-0.532L0.208,-0.532L0.208,-0L0.067,-0L0.067,-0.532Z" style="fill:white;fill-rule:nonzero;"/>
                    </g>
                </g>
                <path id="Serce" d="M202.561,73.19C206.77,65.194 215.186,65.194 219.395,69.192C223.603,73.19 223.603,81.185 219.395,89.181C216.449,95.178 208.874,101.175 202.561,105.173C196.249,101.175 188.674,95.178 185.728,89.181C181.52,81.185 181.52,73.19 185.728,69.192C189.937,65.194 198.353,65.194 202.561,73.19ZM197.186,80.073C196.734,80.073 196.282,80.464 195.83,81.248C195.111,82.505 194.58,83.796 194.239,85.121C193.99,86.103 193.865,87.011 193.865,87.846C193.865,88.552 194.133,88.905 194.668,88.905C195.046,88.905 195.369,88.616 195.636,88.04C195.895,87.48 196.074,87.131 196.176,86.994C196.277,86.856 196.443,86.731 196.674,86.619C197.163,86.37 197.735,86.245 198.39,86.245C198.869,86.245 199.317,86.331 199.732,86.503C200.082,86.649 200.258,86.886 200.258,87.213C200.258,87.721 200.078,88.418 199.718,89.305C199.082,90.846 198.15,91.982 196.923,92.714C195.77,93.402 194.594,93.747 193.395,93.747C192.279,93.747 191.338,93.316 190.572,92.455C189.64,91.405 189.175,89.955 189.175,88.104C189.175,85.78 189.691,83.546 190.724,81.403C191.693,79.397 192.961,77.921 194.529,76.974C195.729,76.242 196.978,75.876 198.279,75.876C199.543,75.876 200.511,76.221 201.185,76.909C201.775,77.52 202.07,78.403 202.07,79.556C202.07,80.675 201.803,81.459 201.268,81.906C200.77,82.319 200.022,82.526 199.026,82.526C198.002,82.526 197.49,82.272 197.49,81.764C197.49,81.626 197.527,81.463 197.601,81.274C197.721,80.938 197.781,80.71 197.781,80.589C197.781,80.245 197.583,80.073 197.186,80.073ZM207.536,80.396C207.831,80.542 208.025,80.637 208.117,80.68C208.569,80.886 208.887,81.045 209.072,81.157C209.247,81.269 209.334,81.39 209.334,81.519C209.334,81.829 209.205,82.345 208.947,83.068C209.224,83.077 209.657,83.086 210.248,83.094C212.065,83.137 213.14,83.197 213.472,83.275C213.785,83.344 213.942,83.512 213.942,83.779C213.942,84.467 213.702,85.341 213.223,86.4C213.038,86.804 212.863,87.08 212.697,87.226C212.549,87.364 212.332,87.433 212.046,87.433C211.871,87.433 211.627,87.42 211.313,87.394C209.699,87.299 208.44,87.26 207.536,87.278L206.941,89.512C207.374,89.529 208.043,89.542 208.947,89.55C210.589,89.559 211.544,89.598 211.811,89.666C212.116,89.744 212.268,89.968 212.268,90.338C212.268,90.897 212.097,91.608 211.756,92.468C211.571,92.95 211.341,93.269 211.064,93.424C210.852,93.536 210.557,93.592 210.179,93.592L207.48,93.54L205.931,93.54C204.851,93.54 204.164,93.488 203.869,93.385C203.454,93.23 202.997,92.787 202.499,92.055C202.167,91.573 202.001,91.164 202.001,90.829C202.001,90.682 202.052,90.411 202.153,90.015L202.831,87.278C202.499,87.243 202.278,87.179 202.167,87.084C202.038,86.981 201.973,86.821 201.973,86.606C201.973,85.978 202.135,85.203 202.458,84.282C202.688,83.619 202.965,83.236 203.288,83.133C203.38,83.098 203.675,83.077 204.173,83.068L204.976,80.408C204.506,80.408 204.15,80.374 203.911,80.305C203.68,80.236 203.565,80.073 203.565,79.814C203.565,79.548 203.745,78.863 204.104,77.761C204.344,77.038 204.533,76.586 204.672,76.406C204.828,76.216 205.137,76.109 205.599,76.083C206.069,76.048 207.024,76.031 208.463,76.031C209.588,76.031 211.101,76.079 213.001,76.173C213.887,76.216 214.362,76.238 214.426,76.238C215.137,76.264 215.575,76.341 215.741,76.47C215.879,76.582 215.948,76.75 215.948,76.974C215.948,77.516 215.768,78.287 215.409,79.285C215.206,79.836 215.017,80.193 214.841,80.357C214.657,80.538 214.385,80.628 214.025,80.628C213.785,80.628 213.412,80.615 212.904,80.589C211.521,80.529 209.731,80.464 207.536,80.396Z" style="fill:white;"/>
            </g>
        </g>
    </g>
</svg>
